<?xml version="1.0" standalone="no"?>
<!DOCTYPE svg PUBLIC "-//W3C//DTD SVG 20010904//EN"
 "http://www.w3.org/TR/2001/REC-SVG-20010904/DTD/svg10.dtd">
<svg version="1.0" xmlns="http://www.w3.org/2000/svg"
 width="900.000000pt" height="900.000000pt" viewBox="0 0 900.000000 900.000000"
 preserveAspectRatio="xMidYMid meet">

<g transform="translate(0.000000,900.000000) scale(0.100000,-0.100000)"
fill="#3333" stroke="none">
<path d="M0 4500 l0 -4500 4500 0 4500 0 0 4500 0 4500 -4500 0 -4500 0 0
-4500z m3169 555 c56 -11 143 -60 187 -107 23 -23 77 -90 121 -148 43 -58 167
-222 276 -366 216 -286 231 -301 312 -292 56 7 93 32 117 79 16 30 18 66 18
296 0 316 6 342 99 433 98 96 43 91 917 88 l759 -3 69 -34 c110 -54 178 -135
215 -255 18 -59 21 -94 21 -260 0 -203 -10 -268 -52 -353 -33 -65 -114 -142
-188 -177 l-65 -31 -541 -3 c-528 -2 -543 -2 -597 18 -77 29 -149 96 -188 176
-28 57 -32 74 -32 148 0 67 5 93 26 139 32 71 92 135 159 173 l53 29 495 0
495 0 0 -115 0 -115 -468 -5 -469 -5 -29 -33 c-39 -44 -39 -90 0 -134 l29 -33
499 -3 499 -3 44 24 c28 15 53 38 67 63 21 37 23 51 23 234 0 183 -2 197 -23
235 -14 26 -37 48 -67 63 l-44 22 -708 0 -707 0 -28 -24 -28 -24 -5 -294 -5
-293 -34 -63 c-40 -73 -100 -130 -179 -169 -79 -38 -211 -45 -294 -13 -108 40
-113 46 -662 777 -33 45 -77 91 -97 102 -68 39 -144 22 -193 -42 -26 -34 -26
-35 -26 -238 0 -258 -14 -319 -98 -431 -46 -61 -131 -121 -210 -147 -60 -20
-80 -21 -681 -21 -600 0 -621 1 -687 21 -96 29 -169 73 -239 144 -288 293
-178 783 208 924 l72 26 476 3 c459 3 478 2 531 -18 96 -35 159 -103 199 -213
54 -147 -16 -318 -163 -398 l-63 -34 -489 -3 c-390 -2 -491 0 -498 10 -9 15
-11 189 -2 212 5 14 56 16 463 16 434 0 458 1 488 20 59 35 55 126 -7 157 -19
10 -124 13 -460 11 l-435 -3 -55 -26 c-77 -36 -124 -80 -157 -147 -24 -50 -28
-69 -28 -147 0 -81 3 -96 30 -144 33 -60 89 -112 155 -144 45 -22 49 -22 655
-22 574 0 612 1 644 18 40 22 79 62 94 97 7 15 14 122 17 255 6 211 8 235 30
288 68 169 253 267 439 232z m4769 -43 c70 -37 130 -99 162 -167 40 -84 42
-187 6 -269 -32 -73 -104 -148 -169 -177 l-52 -24 -487 -3 -488 -3 0 120 0
120 466 3 466 3 29 33 c31 35 35 57 18 95 -26 57 -24 57 -551 57 -550 0 -541
1 -595 -81 l-28 -42 -3 -379 -3 -378 -115 0 -115 0 3 408 3 407 33 67 c54 111
142 187 257 224 31 10 163 13 580 11 l540 -2 43 -23z"/>
</g>
</svg>
